<svg width="20" height="20" viewBox="0 0 20 20" fill="none" xmlns="http://www.w3.org/2000/svg">
<path d="M10.3724 8.60526C10.3618 8.32318 10.4612 8.03531 10.6832 7.81324L11.5057 6.99078C11.5463 6.9501 11.6144 6.94089 11.6699 6.97956C11.9322 7.1627 12.1779 7.36855 12.4041 7.59474C14.5415 9.73438 14.5126 13.1644 12.4173 15.2712L12.4102 15.2784L12.4064 15.2825L12.4043 15.2847L9.77926 17.9097C7.6593 20.0296 4.20913 20.0294 2.08949 17.9097C-0.030441 15.7901 -0.0304711 12.3395 2.08946 10.22L3.53894 8.77047C3.56239 8.74703 3.58391 8.73818 3.60262 8.7347C3.62382 8.73076 3.64918 8.73262 3.67449 8.74243C3.69978 8.75223 3.71887 8.76757 3.73087 8.78355C3.74127 8.79739 3.75071 8.81706 3.7519 8.84946C3.77894 9.58902 3.91157 10.3329 4.15684 11.052C4.1745 11.1037 4.16034 11.1544 4.12875 11.186L3.61754 11.6972C2.33478 12.9799 2.28719 15.0764 3.56897 16.3836C4.85854 17.6987 6.97708 17.7065 8.27657 16.4071L10.9016 13.7824C12.1986 12.4854 12.1929 10.3889 10.9016 9.09758C10.7307 8.92699 10.5599 8.79561 10.4277 8.70458C10.4115 8.69343 10.3975 8.67829 10.388 8.66102C10.3785 8.64377 10.3731 8.62495 10.3724 8.60526Z" fill="#47AD23"/>
<path d="M17.9096 2.0894C15.79 -0.0302697 12.3397 -0.0305825 10.2198 2.08937L7.59476 4.71437L7.5926 4.71655L7.58885 4.72063L7.58168 4.72784C5.48648 6.83471 5.45752 10.2647 7.59495 12.4043C7.82112 12.6305 8.06674 12.8363 8.32897 13.0194C8.38447 13.0581 8.45263 13.0489 8.49332 13.0082L9.31573 12.1858C9.5378 11.9637 9.63717 11.6758 9.6266 11.3938C9.62584 11.3741 9.62051 11.3553 9.61101 11.338C9.60149 11.3207 9.58808 11.3059 9.57184 11.2948C9.43963 11.2038 9.26863 11.0724 9.09772 10.9018C7.80639 9.61051 7.80038 7.51361 9.09738 6.2166L11.7224 3.59199C13.0219 2.2925 15.1404 2.30029 16.43 3.61539C17.7118 4.92257 17.6643 7.01907 16.3814 8.30184L15.8702 8.81305C15.8386 8.84463 15.8245 8.89525 15.8421 8.947C16.0874 9.66616 16.22 10.41 16.2471 11.1495C16.2483 11.1819 16.2577 11.2016 16.2681 11.2155C16.2801 11.2315 16.2992 11.2468 16.3245 11.2566C16.3498 11.2664 16.3752 11.2683 16.3964 11.2643C16.4151 11.2608 16.4366 11.252 16.46 11.2286L17.9095 9.77907C20.0295 7.65953 20.0295 4.20898 17.9096 2.0894Z" fill="#47AD23"/>
<path d="M7.59476 4.71437L10.2198 2.08937C12.3397 -0.0305825 15.79 -0.0302697 17.9096 2.0894C20.0295 4.20898 20.0295 7.65953 17.9095 9.77907L16.46 11.2286C16.4366 11.252 16.4151 11.2608 16.3964 11.2643C16.3752 11.2683 16.3498 11.2664 16.3245 11.2566C16.2992 11.2468 16.2801 11.2315 16.2681 11.2155C16.2577 11.2016 16.2483 11.1819 16.2471 11.1495C16.22 10.41 16.0874 9.66616 15.8421 8.947C15.8245 8.89525 15.8386 8.84463 15.8702 8.81305L16.3814 8.30184C17.6643 7.01907 17.7118 4.92257 16.43 3.61539C15.1404 2.30029 13.0219 2.2925 11.7224 3.59199L9.09738 6.2166C7.80038 7.51361 7.80639 9.61051 9.09772 10.9018C9.26863 11.0724 9.43963 11.2038 9.57184 11.2948C9.58808 11.3059 9.60149 11.3207 9.61101 11.338C9.62051 11.3553 9.62584 11.3741 9.6266 11.3938C9.63717 11.6758 9.5378 11.9637 9.31573 12.1858L8.49332 13.0082C8.45263 13.0489 8.38447 13.0581 8.32897 13.0194C8.06674 12.8363 7.82112 12.6305 7.59495 12.4043C5.45752 10.2647 5.48648 6.83471 7.58168 4.72784L7.58885 4.72063L7.5926 4.71655L7.59476 4.71437ZM7.59476 4.71437L7.59572 4.71314M10.3724 8.60526C10.3618 8.32318 10.4612 8.03531 10.6832 7.81324L11.5057 6.99078C11.5463 6.9501 11.6144 6.94089 11.6699 6.97956C11.9322 7.1627 12.1779 7.36855 12.4041 7.59474C14.5415 9.73438 14.5126 13.1644 12.4173 15.2712L12.4102 15.2784L12.4064 15.2825L12.4043 15.2847L9.77926 17.9097C7.6593 20.0296 4.20913 20.0294 2.08949 17.9097C-0.030441 15.7901 -0.0304711 12.3395 2.08946 10.22L3.53894 8.77047C3.56239 8.74703 3.58391 8.73818 3.60262 8.7347C3.62382 8.73076 3.64918 8.73262 3.67449 8.74243C3.69978 8.75223 3.71887 8.76757 3.73087 8.78355C3.74127 8.79739 3.75071 8.81706 3.7519 8.84946C3.77894 9.58902 3.91157 10.3329 4.15684 11.052C4.1745 11.1037 4.16034 11.1544 4.12875 11.186L3.61754 11.6972C2.33478 12.9799 2.28719 15.0764 3.56897 16.3836C4.85854 17.6987 6.97708 17.7065 8.27657 16.4071L10.9016 13.7824C12.1986 12.4854 12.1929 10.3889 10.9016 9.09758C10.7307 8.92699 10.5599 8.79561 10.4277 8.70458C10.4115 8.69343 10.3975 8.67829 10.388 8.66102C10.3785 8.64377 10.3731 8.62495 10.3724 8.60526Z" stroke="white"/>
</svg>
